<?xml version="1.0" encoding="utf-8"?>
<!-- Generator: Adobe Illustrator 23.0.5, SVG Export Plug-In . SVG Version: 6.00 Build 0)  -->
<svg version="1.1" id="desktop-banner-gigante-prev-fond"
	 xmlns="http://www.w3.org/2000/svg" xmlns:xlink="http://www.w3.org/1999/xlink" x="0px" y="0px" viewBox="0 0 424.1 256.2"
	 style="enable-background:new 0 0 424.1 256.2;" xml:space="preserve">
<style type="text/css">
	.st0{fill:url(#Trazado_3953_1_);}
	.st1{fill:url(#Trazado_3954_1_);}
	.st2{stroke:#000000;}
	.st3{fill:#666666;}
	.st4{clip-path:url(#SVGID_2_);}
	.st5{fill:#FFFFFF;}
	.st6{fill:#151515;}
	.st7{fill:url(#Trazado_3959_1_);}
	.st8{opacity:0.52;fill:url(#Trazado_3960_1_);enable-background:new    ;}
	.st9{fill:url(#Trazado_3961_1_);}
	.st10{fill:url(#Trazado_3962_1_);}
	.st11{fill:#CCC9C9;}
	.st12{fill:#E4E4E4;}
</style>
<g id="Grupo_1247" transform="translate(0 0)">
	
		<linearGradient id="Trazado_3953_1_" gradientUnits="userSpaceOnUse" x1="202.0237" y1="143.5184" x2="202.0237" y2="142.5184" gradientTransform="matrix(424.1179 0 0 -21.383 -85469.8203 3303.6494)">
		<stop  offset="0" style="stop-color:#D5D5D5"/>
		<stop  offset="1" style="stop-color:#D5D5D5;stop-opacity:0"/>
	</linearGradient>
	<path id="Trazado_3953" class="st0" d="M0,255.7c0,0-0.2-11.2,0.3-11.4c1.8-2.3,15.9-6.8,27.9-9.4h367.2c0,0,25.2,3.3,28.8,9.4
		l-0.2,12L0,255.7z"/>
	<g id="Grupo_1246" transform="translate(0)">
		<g id="Grupo_1242" transform="translate(34.598)">
			<g id="Grupo_1236">
				<g id="Grupo_1235">
					
						<linearGradient id="Trazado_3954_1_" gradientUnits="userSpaceOnUse" x1="167.3326" y1="137.5278" x2="167.3326" y2="138.5278" gradientTransform="matrix(354.785 0 0 -223.556 -59189.7188 30968.7266)">
						<stop  offset="0" style="stop-color:#4D4D4D"/>
						<stop  offset="0.2" style="stop-color:#999999"/>
						<stop  offset="0.318" style="stop-color:#B4B4B4"/>
						<stop  offset="0.425" style="stop-color:#C5C5C5"/>
						<stop  offset="0.503" style="stop-color:#CCCCCC"/>
						<stop  offset="0.649" style="stop-color:#C9C9C9"/>
						<stop  offset="0.753" style="stop-color:#BFBFBF"/>
						<stop  offset="0.844" style="stop-color:#B0B0B0"/>
						<stop  offset="0.927" style="stop-color:#9A9A9A"/>
						<stop  offset="1" style="stop-color:#808080"/>
					</linearGradient>
					<path id="Trazado_3954" class="st1" d="M354.8,12.9v210.6H0V13.2C0,5.9,5.9,0,13.2,0l0,0h328.6C349,0,354.8,5.8,354.8,12.9
						C354.8,12.9,354.8,12.9,354.8,12.9z"/>
					<path id="Trazado_3955" class="st2" d="M353.2,220.7H1.6v-208c0-6.2,5-11.2,11.2-11.2c0,0,0,0,0,0H342c6.2,0,11.2,5,11.2,11.2
						V220.7z"/>
				</g>
			</g>
			<g id="Grupo_1240" transform="translate(9.109 9.321)">
				<g id="Grupo_1239">
					<path id="Trazado_3956" d="M336.6,200.1c0,1.5-1.3,2.7-2.8,2.7H2.8c-1.5,0-2.7-1.2-2.8-2.7V2.7C0,1.2,1.3,0,2.8,0h331
						c1.5,0,2.7,1.2,2.8,2.7L336.6,200.1z"/>
					<rect id="Rectángulo_34" x="1.9" y="200.7" class="st3" width="332.7" height="0.6"/>
					<g id="Grupo_1238" transform="translate(1.198 1.144)">
						<g>
							<defs>
								<path id="SVGID_1_" d="M0,199.9V1.5C0,0.7,0.7,0,1.6,0c0,0,0,0,0,0h331c0.9,0,1.6,0.7,1.6,1.5v198.4H0z"/>
							</defs>
							<clipPath id="SVGID_2_">
								<use xlink:href="#SVGID_1_"  style="overflow:visible;"/>
							</clipPath>
							<g id="Grupo_1237" class="st4">
								<rect id="Rectángulo_35" x="-2.2" y="1" class="st5" width="337.3" height="199.2"/>
							</g>
						</g>
					</g>
				</g>
			</g>
			<g id="Grupo_1241" transform="translate(174.228 5.11)">
				<path id="Trazado_3958" class="st6" d="M1.9,3.8C0.8,3.8,0,2.9,0,1.9C0,0.8,0.8,0,1.9,0c1,0,1.9,0.9,1.9,1.9c0,0,0,0,0,0
					C3.8,2.9,2.9,3.8,1.9,3.8z"/>
				
					<radialGradient id="Trazado_3959_1_" cx="-62.1927" cy="165.0457" r="0.62" gradientTransform="matrix(3.62 0 0 -3.62 226.7973 599.1482)" gradientUnits="userSpaceOnUse">
					<stop  offset="8.000000e-03" style="stop-color:#000000"/>
					<stop  offset="0.282" style="stop-color:#040404"/>
					<stop  offset="0.576" style="stop-color:#111111"/>
					<stop  offset="0.638" style="stop-color:#151515"/>
					<stop  offset="0.729" style="stop-color:#181818"/>
					<stop  offset="0.815" style="stop-color:#242122"/>
					<stop  offset="0.841" style="stop-color:#292627"/>
					<stop  offset="0.9" style="stop-color:#403D3E"/>
					<stop  offset="0.992" style="stop-color:#6C6A6B"/>
				</radialGradient>
				<path id="Trazado_3959" class="st7" d="M3.7,1.9c0,1-0.8,1.8-1.8,1.8c-1,0-1.8-0.8-1.8-1.8c0-1,0.8-1.8,1.8-1.8
					C2.9,0.1,3.7,0.9,3.7,1.9C3.7,1.9,3.7,1.9,3.7,1.9z"/>
			</g>
			
				<linearGradient id="Trazado_3960_1_" gradientUnits="userSpaceOnUse" x1="166.8211" y1="138.5725" x2="166.854" y2="137.5295" gradientTransform="matrix(187.182 0 0 -217.931 -30967.2188 30194.6797)">
				<stop  offset="0" style="stop-color:#F8F8F8"/>
				<stop  offset="0.25" style="stop-color:#A9A9A9"/>
				<stop  offset="0.477" style="stop-color:#696969"/>
				<stop  offset="0.642" style="stop-color:#424242"/>
				<stop  offset="0.727" style="stop-color:#333333"/>
				<stop  offset="1" style="stop-color:#1A1A1A"/>
			</linearGradient>
			<path id="Trazado_3960" class="st8" d="M165.4,2.2h177.2c6.4,0,10,3.8,10,10.6l0,207.4H236L165.4,2.2z"/>
		</g>
		<g id="Grupo_1245" transform="translate(0 219.545)">
			<g id="Grupo_1243">
				
					<linearGradient id="Trazado_3961_1_" gradientUnits="userSpaceOnUse" x1="202.0237" y1="-73.6277" x2="202.0237" y2="-72.1277" gradientTransform="matrix(424.1179 0 0 -12.748 -85469.8203 -919.261)">
					<stop  offset="0" style="stop-color:#828282"/>
					<stop  offset="2.000000e-03" style="stop-color:#A5A5A5"/>
					<stop  offset="4.000000e-03" style="stop-color:#C2C1C2"/>
					<stop  offset="6.000000e-03" style="stop-color:#D8D7D9"/>
					<stop  offset="9.000000e-03" style="stop-color:#E8E6E9"/>
					<stop  offset="1.200000e-02" style="stop-color:#F2F0F3"/>
					<stop  offset="1.500000e-02" style="stop-color:#F5F3F6"/>
					<stop  offset="4.500000e-02" style="stop-color:#919191"/>
					<stop  offset="4.700000e-02" style="stop-color:#949494"/>
					<stop  offset="6.500000e-02" style="stop-color:#AFB0B1"/>
					<stop  offset="8.400000e-02" style="stop-color:#C5C6C7"/>
					<stop  offset="0.105" style="stop-color:#D4D5D7"/>
					<stop  offset="0.129" style="stop-color:#DDDFE1"/>
					<stop  offset="0.161" style="stop-color:#E0E2E4"/>
					<stop  offset="0.164" style="stop-color:#DEE0E2"/>
					<stop  offset="0.245" style="stop-color:#B8BABB"/>
					<stop  offset="0.325" style="stop-color:#9B9B9C"/>
					<stop  offset="0.402" style="stop-color:#868686"/>
					<stop  offset="0.477" style="stop-color:#797979"/>
					<stop  offset="0.545" style="stop-color:#757575"/>
					<stop  offset="0.825" style="stop-color:#E6E6E6"/>
					<stop  offset="0.886" style="stop-color:#E3E3E3"/>
					<stop  offset="0.917" style="stop-color:#DBDBDB"/>
					<stop  offset="0.942" style="stop-color:#CECECE"/>
					<stop  offset="0.963" style="stop-color:#BBBBBB"/>
					<stop  offset="0.981" style="stop-color:#A3A3A3"/>
					<stop  offset="0.998" style="stop-color:#858585"/>
					<stop  offset="1" style="stop-color:#828282"/>
				</linearGradient>
				<path id="Trazado_3961" class="st9" d="M0,2.8c0,0-0.2,1,0.3,1.3c1.8,2.3,15.9,8.4,27.9,11h367.2c0,0,25.2-4.8,28.8-10.9
					L424,2.3L0,2.8z"/>
				
					<linearGradient id="Trazado_3962_1_" gradientUnits="userSpaceOnUse" x1="201.5237" y1="-57.4455" x2="202.5237" y2="-57.4455" gradientTransform="matrix(424.1171 0 0 -4.7968 -85469.6563 -273.1587)">
					<stop  offset="0" style="stop-color:#EEEEEE"/>
					<stop  offset="3.000000e-03" style="stop-color:#D8D8D8"/>
					<stop  offset="8.000000e-03" style="stop-color:#AFAFAF"/>
					<stop  offset="1.400000e-02" style="stop-color:#8F8F8F"/>
					<stop  offset="1.900000e-02" style="stop-color:#787878"/>
					<stop  offset="2.400000e-02" style="stop-color:#6A6A6A"/>
					<stop  offset="2.900000e-02" style="stop-color:#666666"/>
					<stop  offset="8.500000e-02" style="stop-color:#C8C8C8"/>
					<stop  offset="0.304" style="stop-color:#FFFFFF"/>
					<stop  offset="0.644" style="stop-color:#FFFFFF"/>
					<stop  offset="0.935" style="stop-color:#C8C8C8"/>
					<stop  offset="0.949" style="stop-color:#9E9E9E"/>
					<stop  offset="0.965" style="stop-color:#757575"/>
					<stop  offset="0.973" style="stop-color:#666666"/>
					<stop  offset="0.977" style="stop-color:#6A6A6A"/>
					<stop  offset="0.982" style="stop-color:#797979"/>
					<stop  offset="0.987" style="stop-color:#919191"/>
					<stop  offset="0.992" style="stop-color:#B2B2B2"/>
					<stop  offset="0.998" style="stop-color:#DDDDDD"/>
					<stop  offset="1" style="stop-color:#EEEEEE"/>
				</linearGradient>
				<path id="Trazado_3962" class="st10" d="M0.1,0h424v3.7c0,0,0.6,1.4-4.1,1H3.8c0,0-3.3,0.5-3.8-1.3L0.1,0z"/>
			</g>
		</g>
	</g>
</g>
<g id="Grupo_1254" transform="translate(59.874 27.724)">
	<rect id="Rectángulo_38" x="0" y="0" class="st11" width="304.4" height="12.5"/>
	<g id="Grupo_1248" transform="translate(0 27.443)">
		<rect id="Rectángulo_39" x="0" y="0" class="st12" width="44.9" height="29.9"/>
		<rect id="Rectángulo_40" x="51.3" y="10" class="st12" width="163.2" height="7.5"/>
		<rect id="Rectángulo_41" x="51.3" y="22.5" class="st12" width="163.2" height="7.5"/>
		<rect id="Rectángulo_42" x="51.3" y="0" class="st12" width="70" height="5"/>
	</g>
	<g id="Grupo_1249" transform="translate(0 72.35)">
		<rect id="Rectángulo_39-2" x="0" y="0" class="st12" width="44.9" height="29.9"/>
		<rect id="Rectángulo_40-2" x="51.3" y="10" class="st12" width="163.2" height="7.5"/>
		<rect id="Rectángulo_41-2" x="51.3" y="22.5" class="st12" width="163.2" height="7.5"/>
		<rect id="Rectángulo_42-2" x="51.3" y="0" class="st12" width="70" height="5"/>
	</g>
	<g id="Grupo_1250" transform="translate(0 154.678)">
		<rect id="Rectángulo_39-3" x="0" y="0" class="st12" width="44.9" height="27.4"/>
		<rect id="Rectángulo_40-3" x="51.3" y="10" class="st12" width="163.2" height="7.5"/>
		<rect id="Rectángulo_41-3" x="51.3" y="22.5" class="st12" width="163.2" height="5"/>
		<rect id="Rectángulo_42-3" x="51.3" y="0" class="st12" width="70" height="5"/>
	</g>
	<rect id="Rectángulo_43" x="229.5" y="27.4" class="st12" width="74.8" height="62.4"/>
	<g id="Grupo_1251" transform="translate(229.523 154.678)">
		<rect id="Rectángulo_44" x="0" y="7.5" class="st12" width="74.8" height="5"/>
		<rect id="Rectángulo_45" x="0" y="17.5" class="st12" width="74.8" height="5"/>
		<rect id="Rectángulo_46" x="0" y="0" class="st12" width="37.4" height="2.5"/>
	</g>
	<g id="Grupo_1257" transform="translate(229.523 179.627)">
		<rect id="Rectángulo_46-2" x="0" y="0" class="st12" width="37.4" height="2.5"/>
	</g>
</g>
<image style="overflow:visible;" width="728" height="90" xlink:href="../dummy/dummy-escritorio-banner-gigante.jpg"  transform="matrix(0.247 0 0 0.247 122.7142 144.72)">
</image>
</svg>
